<?xml version="1.0" encoding="UTF-8" standalone="no"?>
<!-- Created with Inkscape (http://www.inkscape.org/) -->

<svg
   width="512"
   height="512"
   viewBox="0 0 135.46666 135.46667"
   version="1.1"
   id="svg1"
   xml:space="preserve"
   inkscape:export-filename="low-res-discordeno.png"
   inkscape:export-xdpi="24"
   inkscape:export-ydpi="24"
   inkscape:version="1.3.2 (091e20e, 2023-11-25)"
   sodipodi:docname="discordeno.svg"
   xmlns:inkscape="http://www.inkscape.org/namespaces/inkscape"
   xmlns:sodipodi="http://sodipodi.sourceforge.net/DTD/sodipodi-0.dtd"
   xmlns="http://www.w3.org/2000/svg"
   xmlns:svg="http://www.w3.org/2000/svg"><sodipodi:namedview
     id="namedview1"
     pagecolor="#ffffff"
     bordercolor="#000000"
     borderopacity="0.25"
     inkscape:showpageshadow="2"
     inkscape:pageopacity="0.0"
     inkscape:pagecheckerboard="0"
     inkscape:deskcolor="#d1d1d1"
     inkscape:document-units="px"
     inkscape:zoom="1.4677327"
     inkscape:cx="189.40779"
     inkscape:cy="199.28697"
     inkscape:window-width="2560"
     inkscape:window-height="1371"
     inkscape:window-x="0"
     inkscape:window-y="0"
     inkscape:window-maximized="1"
     inkscape:current-layer="layer1" /><defs
     id="defs1" /><g
     inkscape:label="Layer 1"
     inkscape:groupmode="layer"
     id="layer1"><g
       style="clip-rule:evenodd;fill-rule:evenodd;stroke-linejoin:round;stroke-miterlimit:2"
       id="g8"
       transform="matrix(0.16659493,0,0,0.16659493,-16.230511,-17.724199)"><g
         transform="matrix(1.89786,0,0,1.89786,-590.618,-477.337)"
         id="g1">
        <circle
   cx="576.5"
   cy="520.5"
   r="210.5"
   style="display:inline;fill:#ffd700;fill-opacity:1"
   id="circle1" />
    </g><g
         id="g2">
        <path
   d="m 472,106.6 c -1.9,0.2 -8,0.9 -13.5,1.4 -78.2,8.2 -155.2,41.3 -218,93.9 -11.6,9.6 -38,36 -47.6,47.6 -52,62.1 -82.4,131.8 -93.6,214.3 -2.5,18.3 -2.5,80.1 0,98.4 11.2,82.5 41.6,152.2 93.6,214.3 9.6,11.6 36,38 47.6,47.6 62.1,52 131.8,82.4 214.3,93.6 18.3,2.5 80.1,2.5 98.4,0 82.5,-11.2 152.2,-41.6 214.3,-93.6 11.6,-9.6 38,-36 47.6,-47.6 52,-62.1 82.4,-131.8 93.6,-214.3 2.5,-18.3 2.5,-80.1 0,-98.4 -11.2,-82.5 -41.6,-152.2 -93.6,-214.3 -9.6,-11.6 -36,-38 -47.6,-47.6 -61.9,-51.8 -132.3,-82.6 -213.7,-93.5 -8.8,-1.2 -21.6,-1.7 -45.3,-1.9 -18.1,-0.2 -34.6,-0.1 -36.5,0.1 z m 85.002,751.117 c -0.102,-4.708 4.78,-4.55 5.998,-0.717 v 18 c 0,3 -4.114,3.948 -4.998,-0.283 z M 439,841 c 0,-3 6,-3 6,0 l 1,31 c 0,4 -4.38,4 -4.38,1 z m -84.9,-22.5 c 0.3,2.2 0.9,10.4 1.3,18.2 0.7,15 0.4,16.1 -3.7,13 -1.2,-0.9 -2,-4.7 -3.2,-16.1 -2.1,-20.6 -2.2,-19.8 1.7,-19.4 2.9,0.3 3.3,0.7 3.9,4.3 z m 152.516,-15.202 c -1.558,-6.897 4.903,-4.279 5.384,1.702 l 4,36 c 0.379,4.186 -3.984,6.711 -4.367,2.024 z m 112.516,-51.916 c -1,-7 5.868,-6.382 5.868,-0.382 l 2,80 c 0.128,3.082 -4.758,3.729 -4.868,0.382 z M 306.8,751.2 c 0.7,0.7 1.2,3.2 1.2,5.7 0,2.6 1.2,16.1 2.5,30.1 3.8,38.3 4.1,43.5 2.4,42.5 -2.6,-1.5 -4.9,-3.8 -4.4,-4.4 0.2,-0.4 -0.2,-5.4 -1,-11.1 -0.7,-5.8 -1.6,-15.2 -2,-21 -0.4,-5.8 -1.3,-16.4 -2.1,-23.5 -1.9,-17.5 -1.8,-19.5 0.4,-19.5 1,0 2.3,0.5 3,1.2 z M 712,756 c 0.5,58.1 0.4,62.6 -1.2,64.4 -1,1.1 -1.9,1.8 -2.2,1.5 -0.7,-0.8 -1.7,-127.5 -0.9,-128.2 0.4,-0.4 1.4,-0.6 2.3,-0.5 1.3,0.3 1.6,7.4 2,62.8 z m -253,-6 c 0,-2 5.679,-3.206 6,0 l 4,58.464 c 0,3 -5,3.536 -5,0.536 z m -73.6,-33.8 c 0.7,6.2 3.2,35.9 4.2,49.9 0.6,9.4 0.6,9.7 -1.6,10.4 -1.2,0.4 -2.6,0.3 -3,-0.2 -0.7,-0.7 -2.9,-22.9 -5.6,-57.1 l -0.7,-8.2 h 3.1 c 2.9,0 3.1,0.2 3.6,5.2 z M 548,729 c 0,-3 7,-3 7,0 l 2,36 c 0,4 -5,4 -5,1 z M 227.4,647.9 c 0.6,0.9 4.4,32.9 9.1,76.6 1.4,13.2 2.8,25.9 3.1,28.3 l 0.5,4.3 -2.5,-1.6 c -1.9,-1.3 -2.6,-2.6 -2.6,-4.9 0,-6.3 -4.3,-47.8 -7.6,-73.2 -1.9,-14.4 -3.4,-27.1 -3.4,-28.3 0,-2.1 2.4,-2.9 3.4,-1.2 z m 577.1,41.8 -0.7,41.8 -2.5,3.7 c -5.7,8.4 -5.4,10 -5.1,-36.8 l 0.2,-42.9 3.7,-3.8 c 2,-2 4,-3.7 4.4,-3.7 0.3,0 0.3,18.8 0,41.7 z m -389.1,-61 c 0.2,1 0.7,7 1.1,13.3 0.3,6.3 1.2,20.5 2,31.5 2.8,40.4 2.9,45.5 1.2,45.5 -1.9,0 -2.1,-1.5 -4.3,-30 -0.8,-11.8 -2.3,-30.4 -3.3,-41.3 -0.9,-10.9 -1.5,-20 -1.2,-20.2 1.1,-1.2 4,-0.3 4.5,1.2 z m -231.9,-85 c 0.9,8.2 7.9,62.6 11.5,89.3 5.4,41.3 5.8,47.2 3.4,44.7 -0.3,-0.3 -2.6,-14.2 -5,-30.9 C 177.8,539 177.9,539.7 179.2,538.9 c 2.7,-1.8 3.6,-0.8 4.3,4.8 z m 663.2,-85.2 3.6,1.5 -0.7,82.8 c -0.8,105.5 -0.9,108.6 -4.7,117.7 -6.2,14.9 -5.9,17.9 -5.3,-47.5 0.2,-32.7 0.7,-65.8 0.9,-73.5 0.2,-7.7 0.4,-29.4 0.5,-48.3 0,-22.8 0.3,-34.2 1,-34.2 0.6,0 2.7,0.7 4.7,1.5 z M 336.2,627.2 c 1.1,1 1.8,5 2.7,15.8 1.5,19.5 1.7,18 -2.4,18 -4.2,0 -4.1,0.3 -5.5,-17.3 -1.4,-17.9 -1.4,-17.7 1.3,-17.7 1.3,0 3,0.6 3.9,1.2 z m -80.7,-37.7 c 0.6,2.5 3.5,29.6 3.5,32.9 0,2.8 -3.6,5.4 -5.2,3.8 -0.5,-0.5 -1.8,-9 -2.8,-18.8 -1.1,-9.9 -2.2,-20.2 -2.5,-22.9 l -0.6,-5 3.5,4 c 2,2.2 3.8,4.9 4.1,6 z M 195,352.6 c 2.2,19.7 8,72.1 13,116.4 5,44.3 9.7,87 10.6,95 0.8,8 2.2,20.1 3,27 1.4,11.7 1.4,12.5 -0.2,13.7 -2.4,1.8 -3.4,1.6 -3.4,-0.5 0,-0.9 -0.9,-8.5 -2,-16.7 -1.8,-13.7 -4.8,-36.9 -11.5,-89 -1.4,-10.5 -4.1,-31.4 -6,-46.5 -2,-15.1 -4.9,-37.6 -6.5,-50 -1.6,-12.4 -4.3,-33.6 -6,-47.3 -1.8,-13.6 -2.9,-25.7 -2.6,-27 0.7,-2.7 6.6,-12.1 7.2,-11.5 0.2,0.3 2.2,16.6 4.4,36.4 z m 562.1,-113 c 1.2,1.4 1.4,23.3 1.7,144.1 0.3,138.7 0,145.3 -1.8,145.3 -1.1,0 -2.3,-3.6 -3.2,-4.3 -1.5,-1.1 -1.7,-13.2 -2.2,-131.7 -0.4,-71.8 -0.9,-137 -1.2,-144.9 l -0.6,-14.4 2.9,2.1 c 1.7,1.2 3.6,2.9 4.4,3.8 z M 164.4,395.7 c 1.5,12 4.3,33.9 6.2,48.8 1.9,14.8 4.3,33.3 5.4,41 l 1.9,14 -2.1,1.8 c -1.2,1 -2.4,1.4 -2.8,1 -0.4,-0.4 -1.2,-4.4 -1.8,-8.8 -0.6,-4.4 -4.3,-30.1 -8.3,-57 l -7.1,-49 2.3,-6.8 c 1.2,-3.7 2.5,-6.7 2.8,-6.7 0.4,0 1.9,9.8 3.5,21.7 z m 638.6,7.9 c 3.6,1.5 4,1.9 4,5.3 0.2,27.3 -0.4,89.7 -0.9,92.3 -0.1,0.9 -5.3,1 -7.5,0.2 -1.4,-0.5 -1.6,-5.9 -1.6,-50 0,-31.6 0.4,-49.4 1,-49.4 0.5,0 2.8,0.7 5,1.6 z m -89.6,-21 c 1.4,1.4 1.6,7.6 1.6,53.5 V 488 h -2.8 c -6.1,0 -6,1.5 -6.4,-55.3 L 705.5,381 h 3.2 c 1.7,0 3.9,0.7 4.7,1.6 z M 269.9,340.5 c 1.8,19.2 4.7,51.6 6.6,72 l 3.4,37 -3.9,3.9 -3.8,3.9 -0.7,-7.9 c -0.4,-4.4 -2.4,-24.8 -4.5,-45.4 -2.1,-20.6 -5.1,-50.5 -6.6,-66.4 l -2.8,-28.8 3.9,-3.6 c 3.5,-3.3 3.9,-3.4 4.6,-1.6 0.4,1 2.1,17.6 3.8,36.9 z m 397.5,-80.4 c 0.5,0.4 1,6.1 1.1,12.6 0.5,22.1 0.6,157.6 0.1,158 -0.2,0.2 -2,-0.3 -4,-1.1 L 661,428.1 V 258 l 2.8,0.6 c 1.5,0.4 3.1,1 3.6,1.5 z M 477,149.8 c 0,11.7 0.8,37.1 1.9,61.2 0.6,11.8 1.3,28.7 1.6,37.5 1.1,31.2 4.4,113.1 4.9,120.4 l 0.5,7.3 -4.5,-0.5 c -2.5,-0.2 -4.8,-0.8 -5.2,-1.1 -0.3,-0.4 -1,-7.3 -1.4,-15.4 -1.8,-35.6 -7.7,-173.7 -8.3,-193.9 l -0.6,-22.2 2.8,-0.4 c 1.5,-0.2 4,-0.5 5.6,-0.6 L 477,142 Z M 226,291.2 c 1.1,10.6 3.3,32.8 4.9,49.3 1.7,16.5 3.1,30.5 3.1,31.1 0,1.2 -7.7,5 -8.5,4.2 -0.5,-0.5 -10.5,-89 -10.5,-93 0,-2.4 7.7,-12.5 8.7,-11.4 0.3,0.2 1.3,9.1 2.3,19.8 z M 341.4,180.9 c 0.6,0.9 5.3,56 11.1,128.1 1.9,24.5 3.8,46.9 4.1,49.7 0.5,5.1 0.4,5.3 -2.8,7.3 -1.8,1.1 -3.6,2 -4,2 -0.3,0 -0.9,-2.6 -1.2,-5.8 -1.4,-13 -6.8,-75.8 -10.6,-121.2 -2.2,-26.7 -4.2,-50.6 -4.5,-53.2 -0.5,-4.4 -0.4,-4.8 2.2,-6.2 3.2,-1.7 5,-2 5.7,-0.7 z m 276.7,120.8 2.9,1.7 0.1,21.6 c 0.1,11.8 0.3,25 0.3,29.3 0.2,9 -0.9,10.5 -6.3,8.6 l -3.1,-1.1 v -8.6 c 0,-4.8 -0.3,-18.7 -0.7,-31 L 610.7,300 h 2.3 c 1.2,0 3.5,0.8 5.1,1.7 z m -226.7,-36 c 0.3,2.7 0.8,8.8 1.1,13.8 0.3,4.9 1,16.1 1.6,24.8 1.2,17.6 1,18.7 -4.7,18.7 -3,0 -3.4,-0.3 -3.8,-3.3 -1,-5.9 -4.5,-55.1 -4,-55.9 0.5,-0.7 5.7,-2.5 8.1,-2.7 0.6,-0.1 1.4,2 1.7,4.6 z m 135.4,-33.2 c 0.6,0.6 2,49.1 2.1,73.7 l 0.1,14.8 -4.7,-0.7 c -2.7,-0.3 -4.9,-0.6 -5,-0.7 -0.3,-0.2 -3.3,-74.3 -3.3,-81.5 v -7.4 l 5.1,0.6 c 2.9,0.4 5.4,0.9 5.7,1.2 z M 432,205.7 c 0,2.7 0.7,17.6 1.5,33.3 0.8,15.7 1.7,35.6 2.1,44.2 0.7,17.4 0.9,16.8 -5.8,17.2 -3.3,0.1 -3.3,0.1 -3.5,-4.9 -0.2,-2.8 -0.7,-11.5 -1.3,-19.5 -0.5,-8 -1.7,-25.3 -2.5,-38.5 -0.8,-13.2 -1.8,-26.3 -2.1,-29.1 -0.6,-5 -0.5,-5.2 2.2,-6.2 1.6,-0.6 4.4,-1.1 6.2,-1.1 3.2,-0.1 3.2,-0.1 3.2,4.6 z m 140.7,-58.3 c 0.1,0.1 0.4,30.3 0.7,67.1 0.4,36.9 0.9,70 1.2,73.6 0.3,3.7 0.2,6.9 -0.3,7.1 -0.4,0.3 -2.9,0.3 -5.4,0 l -4.6,-0.4 -0.7,-29.1 c -0.4,-16.1 -0.9,-33.9 -1.1,-39.7 -0.8,-17.7 -1.5,-77.8 -0.9,-79.3 0.4,-1.1 1.5,-1.2 5.7,-0.5 2.9,0.6 5.3,1.1 5.4,1.2 z m 136.7,72 3.4,1.4 0.7,13.4 c 0.3,7.3 0.5,23.1 0.3,35 l -0.3,21.8 -4.2,-2.1 -4.2,-2 -0.3,-33.2 c -0.2,-18.3 -0.1,-33.8 0.1,-34.5 0.4,-1.5 0.4,-1.5 4.5,0.2 z M 616.7,201 c 2.8,1 3.1,1.5 3.7,7.2 1,10 0.7,57.8 -0.4,57.8 -2.9,0 -8.9,-3.4 -9.4,-5.3 -0.3,-1.2 -0.6,-15.4 -0.6,-31.5 0,-32.5 -0.4,-30.6 6.7,-28.2 z"
   style="fill-rule:nonzero;fill:#000000;fill-opacity:1"
   id="path1"
   inkscape:label="path1" />
    </g><g
         transform="matrix(0.0673168,0,0,-0.0673168,152.796,931.732)"
         id="g7">
        <g
   transform="matrix(-10,0,0,10,8879.56,2240.35)"
   id="g4"
   style="fill:#ffd700;fill-opacity:1">
            <g
   transform="matrix(558.419,0,0,558.419,340,650)"
   id="g3"
   style="fill:#ffd700;fill-opacity:1">
                <path
   d="M 0.673,-0.539 C 0.609,-0.631 0.504,-0.686 0.392,-0.686 H 0.05 v 0.195 l 0.171,0.17 v -0.193 h 0.171 c 0.056,0 0.108,0.028 0.14,0.074 0.02,0.029 0.03,0.063 0.03,0.098 0,0.034 -0.01,0.068 -0.029,0.097 v 0.001 c -0.03,0.043 -0.077,0.07 -0.129,0.073 H 0.221 V -0.244 L 0.05,-0.414 V 0 h 0.342 c 0.112,0 0.217,-0.055 0.281,-0.147 0.001,-0.001 0.002,-0.002 0.003,-0.003 0.039,-0.057 0.06,-0.124 0.06,-0.192 0,-0.07 -0.021,-0.137 -0.06,-0.194 z"
   style="fill:#ffd700;fill-rule:nonzero;fill-opacity:1"
   id="path2" />
            </g>
        </g>
        <g
   transform="matrix(10,0,0,-10,1510.49,10194.6)"
   id="g6"
   style="fill:#ffd700;fill-opacity:1">
            <g
   transform="matrix(558.419,0,0,558.419,340,650)"
   id="g5"
   style="fill:#ffd700;fill-opacity:1">
                <path
   d="M 0.673,-0.539 C 0.609,-0.631 0.504,-0.686 0.392,-0.686 H 0.05 v 0.195 l 0.171,0.17 v -0.193 h 0.171 c 0.056,0 0.108,0.028 0.14,0.074 0.02,0.029 0.03,0.063 0.03,0.098 0,0.034 -0.01,0.068 -0.029,0.097 v 0.001 c -0.03,0.043 -0.077,0.07 -0.129,0.073 H 0.221 V -0.244 L 0.05,-0.414 V 0 h 0.342 c 0.112,0 0.217,-0.055 0.281,-0.147 0.001,-0.001 0.002,-0.002 0.003,-0.003 0.039,-0.057 0.06,-0.124 0.06,-0.192 0,-0.07 -0.021,-0.137 -0.06,-0.194 z"
   style="fill:#ffd700;fill-rule:nonzero;fill-opacity:1"
   id="path4" />
            </g>
        </g>
    </g></g></g></svg>
