<?xml version="1.0" encoding="UTF-8" standalone="no"?><!DOCTYPE svg PUBLIC "-//W3C//DTD SVG 1.1//EN" "http://www.w3.org/Graphics/SVG/1.1/DTD/svg11.dtd"><svg width="100%" height="100%" viewBox="0 0 3389 3389" version="1.1" xmlns="http://www.w3.org/2000/svg" xmlns:xlink="http://www.w3.org/1999/xlink" xml:space="preserve" xmlns:serif="http://www.serif.com/" style="fill-rule:evenodd;clip-rule:evenodd;stroke-linejoin:round;stroke-miterlimit:2;"><circle cx="1691.97" cy="1683.78" r="1664.58" style="fill:#7289da;"/><path d="M1560.73,0.871c-7.917,0.833 -33.333,3.75 -56.25,5.833c-325.833,34.167 -646.667,172.084 -908.333,391.25c-48.334,40 -158.334,150 -198.334,198.334c-216.666,258.75 -343.333,549.166 -390,892.916c-10.416,76.25 -10.416,333.75 0,410c46.667,343.75 173.334,634.167 390,892.917c40,48.333 150,158.333 198.334,198.333c258.75,216.667 549.166,343.334 892.916,390c76.25,10.417 333.75,10.417 410,0c343.75,-46.666 634.167,-173.333 892.917,-390c48.333,-40 158.333,-150 198.333,-198.333c216.667,-258.75 343.334,-549.167 390,-892.917c10.417,-76.25 10.417,-333.75 0,-410c-46.666,-343.75 -173.333,-634.166 -390,-892.916c-40,-48.334 -150,-158.334 -198.333,-198.334c-257.917,-215.833 -551.25,-344.166 -890.417,-389.583c-36.666,-5 -90,-7.083 -188.75,-7.917c-75.416,-0.833 -144.166,-0.416 -152.083,0.417Zm354.175,3129.65c-0.425,-19.617 19.917,-18.958 24.992,-2.987l-0,75c-0,12.5 -17.142,16.45 -20.825,-1.18l-4.167,-70.833Zm-491.675,-69.654c0,-12.5 25,-12.5 25,-0l4.167,129.167c-0,16.666 -18.25,16.666 -18.25,4.166l-10.917,-133.333Zm-353.75,-93.75c1.25,9.167 3.75,43.333 5.417,75.833c2.916,62.5 1.666,67.084 -15.417,54.167c-5,-3.75 -8.333,-19.583 -13.333,-67.083c-8.75,-85.834 -9.167,-82.5 7.083,-80.834c12.083,1.25 13.75,2.917 16.25,17.917Zm635.483,-63.342c-6.491,-28.737 20.43,-17.829 22.434,7.092l16.666,150c1.58,17.442 -16.6,27.962 -18.195,8.433l-20.905,-165.525Zm468.817,-216.316c-4.167,-29.167 24.45,-26.592 24.45,-1.592l8.333,333.333c0.534,12.842 -19.825,15.538 -20.283,1.592l-12.5,-333.333Zm-1301.38,-0.759c2.916,2.917 5,13.334 5,23.75c-0,10.834 5,67.084 10.416,125.417c15.834,159.583 17.084,181.25 10,177.083c-10.833,-6.25 -20.416,-15.833 -18.333,-18.333c0.833,-1.667 -0.833,-22.5 -4.167,-46.25c-2.916,-24.167 -6.666,-63.333 -8.333,-87.5c-1.667,-24.167 -5.417,-68.333 -8.75,-97.917c-7.917,-72.916 -7.5,-81.25 1.667,-81.25c4.166,0 9.583,2.084 12.5,5Zm1688.33,20c2.083,242.084 1.667,260.834 -5,268.334c-4.167,4.583 -7.917,7.5 -9.167,6.25c-2.916,-3.334 -7.083,-531.25 -3.75,-534.167c1.667,-1.667 5.834,-2.5 9.584,-2.083c5.416,1.25 6.666,30.833 8.333,261.666Zm-1054.17,-25c0,-8.333 23.663,-13.358 25,0l16.667,243.6c0,12.5 -20.833,14.734 -20.833,2.234l-20.834,-245.834Zm-306.666,-140.833c2.916,25.833 13.333,149.583 17.5,207.917c2.5,39.166 2.5,40.416 -6.667,43.333c-5,1.667 -10.833,1.25 -12.5,-0.833c-2.917,-2.917 -12.083,-95.417 -23.333,-237.917l-2.917,-34.167l12.917,0c12.083,0 12.916,0.834 15,21.667Zm677.5,53.333c-0,-12.5 29.166,-12.5 29.166,0l8.334,150c-0,16.667 -20.834,16.667 -20.834,4.167l-16.666,-154.167Zm-1335.83,-337.916c2.5,3.75 18.334,137.083 37.917,319.166c5.833,55 11.667,107.917 12.917,117.917l2.083,17.917l-10.417,-6.667c-7.916,-5.417 -10.833,-10.833 -10.833,-20.417c0,-26.25 -17.917,-199.166 -31.667,-305c-7.916,-60 -14.166,-112.916 -14.166,-117.916c-0,-8.75 10,-12.084 14.166,-5Zm2404.58,174.166l-2.917,174.167l-10.417,15.417c-23.75,35 -22.5,41.666 -21.25,-153.334l0.834,-178.75l15.416,-15.833c8.334,-8.333 16.667,-15.417 18.334,-15.417c1.25,0 1.25,78.334 -0,173.75Zm-1621.25,-254.166c0.833,4.166 2.916,29.166 4.583,55.416c1.25,26.25 5,85.417 8.333,131.25c11.667,168.334 12.084,189.584 5,189.584c-7.916,-0 -8.75,-6.25 -17.916,-125c-3.334,-49.167 -9.584,-126.667 -13.75,-172.084c-3.75,-45.416 -6.25,-83.333 -5,-84.166c4.583,-5 16.666,-1.25 18.75,5Zm-966.25,-354.167c3.75,34.167 32.916,260.833 47.916,372.083c22.5,172.084 24.167,196.667 14.167,186.25c-1.25,-1.25 -10.833,-59.166 -20.833,-128.75c-65,-449.166 -64.584,-446.25 -59.167,-449.583c11.25,-7.5 15,-3.333 17.917,20Zm2763.33,-355l15,6.25l-2.917,345c-3.333,439.583 -3.75,452.5 -19.583,490.417c-25.833,62.083 -24.583,74.583 -22.083,-197.917c0.833,-136.25 2.916,-274.167 3.75,-306.25c0.833,-32.083 1.666,-122.5 2.083,-201.25c0,-95 1.25,-142.5 4.167,-142.5c2.5,-0 11.25,2.917 19.583,6.25Zm-2127.08,702.917c4.583,4.166 7.5,20.833 11.25,65.833c6.25,81.25 7.083,75 -10,75c-17.5,-0 -17.084,1.25 -22.917,-72.083c-5.833,-74.584 -5.833,-73.75 5.417,-73.75c5.416,-0 12.5,2.5 16.25,5Zm-336.25,-157.084c2.5,10.417 14.583,123.334 14.583,137.084c0,11.666 -15,22.5 -21.667,15.833c-2.083,-2.083 -7.5,-37.5 -11.666,-78.333c-4.584,-41.25 -9.167,-84.167 -10.417,-95.417l-2.5,-20.833l14.583,16.666c8.334,9.167 15.834,20.417 17.084,25Zm-252.084,-987.083c9.167,82.083 33.334,300.417 54.167,485c20.833,184.583 40.417,362.5 44.167,395.833c3.333,33.334 9.166,83.75 12.5,112.5c5.833,48.75 5.833,52.084 -0.834,57.084c-10,7.5 -14.166,6.666 -14.166,-2.084c-0,-3.75 -3.75,-35.416 -8.334,-69.583c-7.5,-57.083 -20,-153.75 -47.916,-370.833c-5.834,-43.75 -17.084,-130.834 -25,-193.75c-8.334,-62.917 -20.417,-156.667 -27.084,-208.334c-6.666,-51.666 -17.916,-140 -25,-197.083c-7.5,-56.667 -12.083,-107.083 -10.833,-112.5c2.917,-11.25 27.5,-50.417 30,-47.917c0.833,1.25 9.167,69.167 18.333,151.667Zm2342.08,-470.833c5,5.833 5.833,97.083 7.083,600.416c1.25,577.917 0,605.417 -7.5,605.417c-4.583,-0 -9.583,-15 -13.333,-17.917c-6.25,-4.583 -7.084,-55 -9.167,-548.75c-1.667,-299.166 -3.75,-570.833 -5,-603.75l-2.5,-60l12.083,8.75c7.084,5 15,12.084 18.334,15.834Zm-2469.58,650.416c6.25,50 17.917,141.25 25.834,203.334c7.916,61.666 17.916,138.75 22.5,170.833l7.916,58.333l-8.75,7.5c-5,4.167 -10,5.834 -11.666,4.167c-1.667,-1.667 -5,-18.333 -7.5,-36.667c-2.5,-18.333 -17.917,-125.416 -34.584,-237.5l-29.583,-204.166l9.583,-28.334c5,-15.416 10.417,-27.916 11.667,-27.916c1.667,-0 7.917,40.833 14.583,90.416Zm2660.83,32.917c15,6.25 16.666,7.917 16.666,22.083c0.834,113.75 -1.666,373.75 -3.75,384.584c-0.416,3.75 -22.083,4.166 -31.25,0.833c-5.833,-2.083 -6.666,-24.583 -6.666,-208.333c-0,-131.667 1.666,-205.834 4.166,-205.834c2.084,0 11.667,2.917 20.834,6.667Zm-373.334,-87.5c5.834,5.833 6.667,31.667 6.667,222.917l0,216.25l-11.667,-0c-25.416,-0 -25,6.25 -26.666,-230.417l-1.25,-215.417l13.333,0c7.083,0 16.25,2.917 19.583,6.667Zm-1847.92,-175.417c7.5,80 19.583,215 27.5,300l14.166,154.167l-16.25,16.25l-15.833,16.25l-2.917,-32.917c-1.666,-18.333 -10,-103.333 -18.75,-189.166c-8.75,-85.834 -21.25,-210.417 -27.5,-276.667l-11.666,-120l16.25,-15c14.583,-13.75 16.25,-14.167 19.166,-6.667c1.667,4.167 8.75,73.334 15.834,153.75Zm1656.25,-335c2.083,1.667 4.166,25.417 4.583,52.5c2.083,92.084 2.5,656.667 0.417,658.334c-0.834,0.833 -8.334,-1.25 -16.667,-4.584l-15,-6.25l0,-708.75l11.667,2.5c6.25,1.667 12.916,4.167 15,6.25Zm-793.334,-459.583c0,48.75 3.334,154.583 7.917,255c2.5,49.167 5.417,119.583 6.667,156.25c4.583,130 18.333,471.25 20.416,501.667l2.084,30.416l-18.75,-2.083c-10.417,-0.833 -20,-3.333 -21.667,-4.583c-1.25,-1.667 -4.167,-30.417 -5.833,-64.167c-7.5,-148.333 -32.084,-723.75 -34.584,-807.917l-2.5,-92.5l11.667,-1.666c6.25,-0.834 16.667,-2.084 23.333,-2.5l11.25,-0.417l0,32.5Zm-1045.83,589.167c4.583,44.166 13.75,136.666 20.417,205.416c7.083,68.75 12.916,127.084 12.916,129.584c0,5 -32.083,20.833 -35.416,17.5c-2.084,-2.084 -43.75,-370.834 -43.75,-387.5c-0,-10 32.083,-52.084 36.25,-47.5c1.25,0.833 5.416,37.916 9.583,82.5Zm480.833,-459.584c2.5,3.75 22.084,233.334 46.25,533.75c7.917,102.084 15.834,195.417 17.084,207.084c2.083,21.25 1.666,22.083 -11.667,30.416c-7.5,4.584 -15,8.334 -16.667,8.334c-1.25,-0 -3.75,-10.834 -5,-24.167c-5.833,-54.167 -28.333,-315.833 -44.166,-505c-9.167,-111.25 -17.5,-210.833 -18.75,-221.667c-2.084,-18.333 -1.667,-20 9.166,-25.833c13.334,-7.083 20.834,-8.333 23.75,-2.917Zm1152.92,503.334l12.083,7.083l0.417,90c0.417,49.167 1.25,104.167 1.25,122.083c0.833,37.5 -3.75,43.75 -26.25,35.834l-12.917,-4.584l0,-35.833c0,-20 -1.25,-77.917 -2.916,-129.167l-2.5,-92.5l9.583,0c5,0 14.583,3.334 21.25,7.084Zm-944.583,-150c1.25,11.25 3.333,36.666 4.583,57.5c1.25,20.416 4.167,67.083 6.667,103.333c5,73.333 4.166,77.917 -19.584,77.917c-12.5,-0 -14.166,-1.25 -15.833,-13.75c-4.167,-24.584 -18.75,-229.584 -16.667,-232.917c2.084,-2.917 23.75,-10.417 33.75,-11.25c2.5,-0.417 5.834,8.333 7.084,19.167Zm564.166,-138.334c2.5,2.5 8.334,204.584 8.75,307.084l0.417,61.666l-19.583,-2.916c-11.25,-1.25 -20.417,-2.5 -20.834,-2.917c-1.25,-0.833 -13.75,-309.583 -13.75,-339.583l0,-30.834l21.25,2.5c12.084,1.667 22.5,3.75 23.75,5Zm-395,-111.666c0,11.25 2.917,73.333 6.25,138.75c3.334,65.416 7.084,148.333 8.75,184.166c2.917,72.5 3.75,70 -24.166,71.667c-13.75,0.417 -13.75,0.417 -14.584,-20.417c-0.833,-11.666 -2.916,-47.916 -5.416,-81.25c-2.084,-33.333 -7.084,-105.416 -10.417,-160.416c-3.333,-55 -7.5,-109.584 -8.75,-121.25c-2.5,-20.834 -2.083,-21.667 9.167,-25.834c6.666,-2.5 18.333,-4.583 25.833,-4.583c13.333,-0.417 13.333,-0.417 13.333,19.167Zm586.25,-242.917c0.417,0.417 1.667,126.25 2.917,279.583c1.667,153.75 3.75,291.667 5,306.667c1.25,15.417 0.833,28.75 -1.25,29.583c-1.667,1.25 -12.083,1.25 -22.5,0l-19.167,-1.666l-2.916,-121.25c-1.667,-67.084 -3.75,-141.25 -4.584,-165.417c-3.333,-73.75 -6.25,-324.167 -3.75,-330.417c1.667,-4.583 6.25,-5 23.75,-2.083c12.084,2.5 22.084,4.583 22.5,5Zm569.584,300l14.166,5.833l2.917,55.834c1.25,30.416 2.083,96.25 1.25,145.833l-1.25,90.833l-17.5,-8.75l-17.5,-8.333l-1.25,-138.333c-0.833,-76.25 -0.417,-140.834 0.417,-143.75c1.666,-6.25 1.666,-6.25 18.75,0.833Zm-386.25,-76.667c11.666,4.167 12.916,6.25 15.416,30c4.167,41.667 2.917,240.834 -1.666,240.834c-12.084,-0 -37.084,-14.167 -39.167,-22.084c-1.25,-5 -2.5,-64.166 -2.5,-131.25c0,-135.416 -1.667,-127.5 27.917,-117.5Z" style="fill-rule:nonzero;"/><g><g><path d="M713.542,1831.6c100.243,144.099 264.703,230.245 440.128,230.245l535.671,-0l0,-305.427l-267.835,-266.269l-0,302.294l-267.836,-0c-87.712,-0 -169.159,-43.856 -219.281,-115.906c-31.326,-45.422 -46.988,-98.676 -46.988,-153.496c-0,-53.254 15.662,-106.508 45.422,-151.93l0,-1.567c46.989,-67.35 120.604,-109.64 202.052,-114.339l286.631,0l-0,114.339l267.835,266.27l0,-648.445l-535.671,0c-175.425,0 -339.885,86.146 -440.128,230.245c-1.566,1.566 -3.132,3.133 -4.699,4.699c-61.085,89.278 -93.977,194.22 -93.977,300.728c-0,109.64 32.892,214.582 93.977,303.86l4.699,4.699Z" style="fill:#7289da;fill-rule:nonzero;"/></g></g><g><g><path d="M2662.15,1558.4c-100.242,-144.099 -264.703,-230.245 -440.128,-230.245l-535.671,0l0,305.427l267.836,266.27l-0,-302.295l267.835,0c87.713,0 169.16,43.857 219.281,115.906c31.326,45.422 46.989,98.676 46.989,153.496c-0,53.254 -15.663,106.508 -45.423,151.931l0,1.566c-46.988,67.35 -120.604,109.64 -202.051,114.339l-286.631,0l-0,-114.339l-267.836,-266.27l0,648.445l535.671,-0c175.425,-0 339.886,-86.146 440.128,-230.245c1.566,-1.566 3.133,-3.132 4.699,-4.699c61.085,-89.278 93.978,-194.22 93.978,-300.728c-0,-109.64 -32.893,-214.581 -93.978,-303.86l-4.699,-4.699Z" style="fill:#7289da;fill-rule:nonzero;"/></g></g></svg>